<svg width="92" height="64" viewBox="0 0 92 64" fill="none" xmlns="http://www.w3.org/2000/svg">
<path d="M61.9999 56.9973C61.9999 56.9973 59.8101 54.3825 57.9847 52.0722C65.9545 49.8226 68.9963 44.8371 68.9963 44.8371C66.502 46.4788 64.1292 47.6344 61.9999 48.4241C58.9583 49.7012 56.0378 50.5519 53.1787 51.0385C47.3382 52.1329 41.9844 51.829 37.4218 50.9779C33.9539 50.3087 30.9728 49.3362 28.4787 48.3637C27.0793 47.8164 25.5585 47.1477 24.0372 46.2966C23.8551 46.1747 23.6724 46.114 23.49 45.9922C23.3684 45.9315 23.3073 45.8708 23.2465 45.8102C22.1516 45.2022 21.5431 44.7765 21.5431 44.7765C21.5431 44.7765 24.4636 49.6403 32.1896 51.9504C30.3649 54.2612 28.1137 56.9967 28.1137 56.9967C14.6683 56.5713 9.55835 47.7557 9.55835 47.7557C9.55835 28.1788 18.3189 12.3101 18.3189 12.3101C27.0793 5.74394 35.4141 5.92647 35.4141 5.92647L36.0224 6.65633C25.0718 9.81698 20.0223 14.6207 20.0223 14.6207C20.0223 14.6207 21.3607 13.8911 23.6113 12.8577C30.1211 9.99979 35.2925 9.20984 37.4218 9.0273C37.7866 8.96637 38.0912 8.90543 38.4562 8.90543C42.533 8.37488 46.6588 8.33407 50.7454 8.78411C56.5245 9.45303 62.7303 11.1554 69.0571 14.6207C69.0571 14.6207 64.2511 10.061 53.9085 6.89952L54.7602 5.92675C54.7602 5.92675 63.0951 5.74394 71.8555 12.3107C71.8555 12.3107 80.6165 28.1788 80.6165 47.7557C80.6165 47.7557 75.445 56.5713 61.9999 56.9967V56.9973ZM33.7107 28.6042C30.243 28.6042 27.5057 31.6441 27.5057 35.3527C27.5057 39.0612 30.3038 42.1014 33.7107 42.1014C37.1786 42.1014 39.9159 39.0615 39.9159 35.3527C39.977 31.6441 37.1781 28.6042 33.7107 28.6042ZM55.9165 28.6042C52.4485 28.6042 49.7107 31.6441 49.7107 35.3527C49.7107 39.0612 52.5096 42.1014 55.9165 42.1014C59.3842 42.1014 62.1215 39.0615 62.1215 35.3527C62.1215 31.6438 59.3842 28.6042 55.9165 28.6042Z" fill="#47494D"/>
</svg>
