<svg width="100" height="100" viewBox="0 0 100 100" fill="none" xmlns="http://www.w3.org/2000/svg">
<g clip-path="url(#clip0_1_694)">
<rect width="100" height="100" rx="16" fill="#FFC533"/>
<rect width="100" height="100" fill="#121314"/>
<path d="M26 47.1118V32.7788H30.7499V47.1118H26ZM26 71V66.2224H40.2501V71H26ZM30.7499 32.7788V28H45V32.7788H30.7499ZM30.7499 47.1118H40.2498V51.8894H30.7499V47.1118ZM40.2501 66.2224L40.2498 51.8894H44.9998V66.2224H40.2501Z" fill="white"/>
<path d="M50 56.667V28H54.8V56.667H50ZM54.8 71V56.667H59.6V71H54.8ZM59.6 56.667V37.5564H64.4V56.667H59.6ZM64.4 71V56.667H69.2V71H64.4ZM69.2 56.667V28H74V56.667H69.2Z" fill="white"/>
</g>
<defs>
<clipPath id="clip0_1_694">
<rect width="100" height="100" rx="16" fill="white"/>
</clipPath>
</defs>
</svg>
