<svg width="280" height="38" viewBox="0 0 280 38" fill="none" xmlns="http://www.w3.org/2000/svg">
<path d="M6 9.57346V7H16.2913V9.57346H6ZM6 30.1561V19.8648H8.5728V27.5833H18.8641V30.1561H6ZM8.5728 19.8648V17.292H16.2913V19.8648H8.5728ZM16.2913 17.292V9.57346H18.8641V17.292H16.2913Z" fill="#2E6FF2"/>
<path d="M21.437 27.5833V9.57346H24.0098V27.5833H21.437ZM31.7283 7V9.57346H24.0098V7H31.7283ZM31.7283 27.5833V30.1561H24.0098V27.5833H31.7283ZM31.7283 9.57346H34.3011V27.5833H31.7283V9.57346Z" fill="#2E6FF2"/>
<path d="M36.874 9.57346V7H47.1653V9.57346H36.874ZM36.874 30.1561V19.8648H39.4468V27.5833H49.7381V30.1561H36.874ZM39.4468 19.8648V17.292H47.1653V19.8648H39.4468ZM47.1653 17.292V9.57346H49.7381V17.292H47.1653Z" fill="#2E6FF2"/>
<path d="M52.3108 9.57346V7H62.6021V9.57346H52.3108ZM52.3108 30.1561V27.5833H62.6021V30.1561H52.3108ZM54.8836 19.8648V17.292H62.6021V19.8648H54.8836ZM62.6021 17.292V9.57346H65.1749V17.292H62.6021ZM62.6021 27.5833V19.8648H65.1749V27.5833H62.6021Z" fill="#2E6FF2"/>
<path d="M72.7019 17.292V9.57346H75.2747V17.292H72.7019ZM72.7019 30.1561V27.5833H80.4204V30.1561H72.7019ZM75.2747 9.57346V7H82.9932V9.57346H75.2747ZM75.2747 17.292H80.4203V19.8648H75.2747V17.292ZM80.4204 27.5833L80.4203 19.8648H82.9931V27.5833H80.4204Z" fill="#2E6FF2"/>
<path d="M85.566 22.4376V7H88.1388V22.4376H85.566ZM88.1388 30.1561V22.4376H90.7116V30.1561H88.1388ZM90.7116 22.4376V12.1463H93.2844V22.4376H90.7116ZM93.2844 30.1561V22.4376H95.8572V30.1561H93.2844ZM95.8572 22.4376V7H98.43V22.4376H95.8572Z" fill="#2E6FF2"/>
<path d="M105.957 9.57346V7H118.821V9.57346H113.676V30.1561H111.103V9.57346H105.957Z" fill="#2E6FF2"/>
<path d="M121.394 30.1561V7H131.685V9.57346H123.967V17.292H131.685V19.8648H123.967V27.5833H131.685V30.1561H121.394Z" fill="#2E6FF2"/>
<path d="M134.259 27.5833V9.57346H136.832V27.5833H134.259ZM136.832 9.57346V7H147.123V9.57346H136.832ZM136.832 27.5833H147.123V30.1561H136.832V27.5833Z" fill="#2E6FF2"/>
<path d="M149.696 30.1561V7H152.269V17.292H159.987V7H162.56V30.1561H159.987V19.8648H152.269V30.1561H149.696Z" fill="#2E6FF2"/>
<path d="M170.087 27.5833V9.57346H172.66V27.5833H170.087ZM172.66 9.57346V7H182.952V9.57346H172.66ZM172.66 27.5833H182.952V30.1561H172.66V27.5833Z" fill="#2E6FF2"/>
<path d="M185.524 27.5833V9.57346H188.097V27.5833H185.524ZM195.815 7V9.57346H188.097V7H195.815ZM195.815 27.5833V30.1561H188.097V27.5833H195.815ZM195.815 9.57346H198.389V27.5833H195.815V9.57346Z" fill="#2E6FF2"/>
<path d="M200.961 30.1561V7H203.534V9.57346H206.106V14.7191H203.534V30.156L200.961 30.1561ZM206.106 19.8648V14.7191L208.68 14.7192V19.8648H206.106ZM208.68 25.0104V19.8648H211.252V7H213.825V30.1561H211.252V25.0105L208.68 25.0104Z" fill="#2E6FF2"/>
<path d="M216.398 30.1561V7H218.971V9.57346H221.543V14.7191H218.971V30.156L216.398 30.1561ZM221.543 19.8648V14.7191L224.117 14.7192V19.8648H221.543ZM224.117 25.0104V19.8648H226.689V7H229.262V30.1561H226.689V25.0105L224.117 25.0104Z" fill="#2E6FF2"/>
<path d="M231.835 30.1561V7H242.126V9.57346H234.408V17.292H242.126V19.8648H234.408V27.5833H242.126V30.1561H231.835Z" fill="#2E6FF2"/>
<path d="M244.698 27.5833V9.57346H247.272V27.5833H244.698ZM247.272 9.57346V7H257.563V9.57346H247.272ZM247.272 27.5833H257.563V30.1561H247.272V27.5833Z" fill="#2E6FF2"/>
<path d="M260.135 9.57346V7H273V9.57346H267.854V30.1561H265.281V9.57346H260.135Z" fill="#2E6FF2"/>
</svg>
